<?xml version="1.0" standalone="no"?>
<!DOCTYPE svg PUBLIC "-//W3C//DTD SVG 20010904//EN">
<svg version="1.0" xmlns="http://www.w3.org/2000/svg"
 width="94.000000pt" height="94.000000pt" viewBox="0 0 94.000000 94.000000"
 preserveAspectRatio="xMidYMid meet">
<metadata>
Created by potrace 1.14, written by Peter Selinger 2001-2017
</metadata>
<g transform="translate(0.000000,94.000000) scale(0.100000,-0.100000)"
fill="#000000" stroke="none">
<path d="M459 723 l-86 -88 28 -95 c16 -52 29 -103 29 -113 0 -17 23 -30 77
-43 23 -6 24 -5 14 13 -6 12 -21 23 -34 27 -19 4 -26 19 -45 92 -13 47 -21 88
-18 91 5 5 140 -32 166 -46 8 -4 21 -37 30 -72 9 -35 20 -75 25 -88 6 -20 4
-23 -9 -18 -9 4 -16 2 -16 -3 0 -14 30 -40 46 -40 24 0 185 169 180 188 -3 10
-17 63 -32 119 l-26 101 -42 11 c-22 6 -72 20 -111 31 -38 11 -75 20 -80 20
-6 0 -49 -39 -96 -87z m163 37 c24 -6 61 -16 82 -21 l39 -11 -67 -67 -67 -68
-86 23 c-47 13 -87 25 -90 27 -7 8 122 135 134 132 6 -2 31 -9 55 -15z m157
-107 c7 -27 19 -65 26 -87 l14 -39 -66 -68 c-36 -38 -68 -67 -70 -65 -3 2 -15
43 -28 91 l-24 87 62 63 c34 35 65 64 68 64 4 1 12 -20 18 -46z"/>
<path d="M226 490 c-48 -49 -85 -94 -81 -100 3 -5 8 -18 10 -27 2 -10 14 -57
26 -104 l23 -86 76 -22 c41 -11 96 -26 122 -33 l46 -12 86 89 c48 49 85 94 82
101 -2 6 -17 57 -32 113 -28 104 -34 112 -86 125 -40 9 -38 -22 2 -35 23 -9
32 -20 41 -52 6 -23 17 -63 24 -89 8 -27 11 -48 7 -48 -4 0 -45 11 -92 24
l-85 23 -22 74 c-24 82 -28 113 -13 104 6 -3 10 1 10 9 0 15 -28 36 -48 36 -4
0 -48 -40 -96 -90z m113 -54 l23 -89 -63 -63 c-35 -35 -66 -60 -70 -56 -7 6
-49 150 -49 165 0 8 131 140 134 135 2 -2 13 -43 25 -92z m226 -156 c5 0 -21
-31 -59 -69 l-68 -68 -71 19 c-40 10 -77 20 -84 22 -29 5 -22 18 38 79 l64 64
85 -24 c47 -12 89 -23 95 -23z"/>
</g>
</svg>
